<?xml version="1.0" standalone="no"?><svg xmlns="http://www.w3.org/2000/svg" viewBox="0 0 1440 320"><path fill="#082d49" fill-opacity="1" d="M0,224L21.8,197.3C43.6,171,87,117,131,106.7C174.5,96,218,128,262,133.3C305.5,139,349,117,393,112C436.4,107,480,117,524,133.3C567.3,149,611,171,655,165.3C698.2,160,742,128,785,128C829.1,128,873,160,916,192C960,224,1004,256,1047,229.3C1090.9,203,1135,117,1178,101.3C1221.8,85,1265,139,1309,170.7C1352.7,203,1396,213,1418,218.7L1440,224L1440,0L1418.2,0C1396.4,0,1353,0,1309,0C1265.5,0,1222,0,1178,0C1134.5,0,1091,0,1047,0C1003.6,0,960,0,916,0C872.7,0,829,0,785,0C741.8,0,698,0,655,0C610.9,0,567,0,524,0C480,0,436,0,393,0C349.1,0,305,0,262,0C218.2,0,175,0,131,0C87.3,0,44,0,22,0L0,0Z"></path></svg>