<?xml version="1.0" standalone="no"?><svg xmlns="http://www.w3.org/2000/svg" viewBox="0 0 1440 320"><path fill="#f1f5f9" fill-opacity="1" d="M0,128L21.8,144C43.6,160,87,192,131,181.3C174.5,171,218,117,262,96C305.5,75,349,85,393,106.7C436.4,128,480,160,524,170.7C567.3,181,611,171,655,170.7C698.2,171,742,181,785,170.7C829.1,160,873,128,916,128C960,128,1004,160,1047,186.7C1090.9,213,1135,235,1178,218.7C1221.8,203,1265,149,1309,128C1352.7,107,1396,117,1418,122.7L1440,128L1440,320L1418.2,320C1396.4,320,1353,320,1309,320C1265.5,320,1222,320,1178,320C1134.5,320,1091,320,1047,320C1003.6,320,960,320,916,320C872.7,320,829,320,785,320C741.8,320,698,320,655,320C610.9,320,567,320,524,320C480,320,436,320,393,320C349.1,320,305,320,262,320C218.2,320,175,320,131,320C87.3,320,44,320,22,320L0,320Z"></path></svg>